#!OML:ASF X:\für Bonn\!DataBase\2005_08_10_Bjorn_Final\c3d\bjorn.ASF
:FULLY-SPECIFIED
:DEGREES
31
root -17.9273 18.5032 22.5194 172.818 47.7766 -538.381
lowerback 1.79435 -1.29662 3.05383
upperback 14.2249 -0.80183 2.13427
thorax 14.5398 0.379156 0.732891
lowerneck 1.23815 3.17297 1.44038
upperneck -3.06013 4.15724 -6.75895
head -0.987095 2.18793 -2.42772
rclavicle 1.12512e-013 -4.77083e-015
rhumerus -14.6295 10.3535 -92.6192
rradius 46.2777
rwrist -1.78454
rhand -20.3733 20.0527
rfingers 7.12502
rthumb 5.97944 -9.84291
lclavicle 1.12512e-013 -4.77083e-015
lhumerus -23.223 5.21291 84.5562
lradius 21.6842
lwrist -30.9648
lhand -31.5456 -18.4782
lfingers 7.12502
lthumb -4.81 11.4472
rfemur -4.23648 -1.74827 21.9301
rtibia 39.8495
rfoot -25.6321 7.56011
rtoes -3.981
lfemur -35.4928 14.0581 -8.48695
ltibia 48.1808
lfoot 2.30883 16.5155
ltoes -15.4072
32
root -17.8774 18.4656 22.4933 172.961 47.7657 -538.193
lowerback 1.794 -1.26393 2.80376
upperback 14.308 -0.727181 2.09938
thorax 14.6469 0.392993 0.844862
lowerneck 1.50313 3.16692 1.27922
upperneck -3.48375 4.12806 -6.51466
head -1.17616 2.18307 -2.33371
rclavicle -4.57205e-014 3.18055e-015
rhumerus -14.5565 10.2201 -92.6761
rradius 46.4035
rwrist -1.63572
rhand -20.1898 20.1239
rfingers 7.12502
rthumb 6.15661 -9.76667
lclavicle -4.57205e-014 3.18055e-015
lhumerus -23.1019 5.6186 84.3893
lradius 21.7693
lwrist -31.028
lhand -31.6604 -18.5022
lfingers 7.12502
lthumb -4.92087 11.4206
rfemur -4.30278 -1.68554 22.1495
rtibia 40.371
rfoot -26.0788 7.5005
rtoes -4.30187
lfemur -34.9973 13.8339 -7.99016
ltibia 46.6444
lfoot 3.01257 16.9592
ltoes -15.1763
33
root -17.8284 18.4269 22.4678 173.126 47.74 -538.001
lowerback 1.79694 -1.24574 2.54047
upperback 14.3813 -0.673118 2.07364
thorax 14.74 0.393437 0.971724
lowerneck 1.75675 3.17471 1.06018
upperneck -3.87797 4.11905 -6.25625
head -1.3548 2.18775 -2.22507
rclavicle -1.41137e-014 1.03368e-014
rhumerus -14.5134 10.1404 -92.7206
rradius 46.5999
rwrist -1.57518
rhand -20.0167 20.1642
rfingers 7.12502
rthumb 6.32366 -9.72144
lclavicle -1.41137e-014 1.03368e-014
lhumerus -23.0009 6.07598 84.2339
lradius 21.8673
lwrist -31.0855
lhand -31.862 -18.5914
lfingers 7.12502
lthumb -5.11547 11.3269
rfemur -4.39944 -1.6859 22.3553
rtibia 40.8989
rfoot -26.506 7.46487
rtoes -4.70314
lfemur -34.5533 13.6368 -7.51111
ltibia 45.1825
lfoot 3.98202 17.2408
ltoes -15.9347
34
root -17.7784 18.3879 22.4399 173.277 47.7333 -537.815
lowerback 1.80601 -1.21875 2.26675
upperback 14.4531 -0.606849 2.05942
thorax 14.8278 0.397091 1.11851
lowerneck 2.0539 3.17931 0.803004
upperneck -4.28226 4.10477 -5.99537
head -1.54596 2.19087 -2.11127
rclavicle -6.36111e-014 1.82882e-014
rhumerus -14.5481 10.0978 -92.7359
rradius 46.8592
rwrist -1.51919
rhand -19.9127 20.1777
rfingers 7.12502
rthumb 6.42413 -9.70489
lclavicle -6.36111e-014 1.82882e-014
lhumerus -22.9384 6.38115 84.1333
lradius 22.027
lwrist -31.0257
lhand -32.0956 -18.6503
lfingers 7.12502
lthumb -5.34106 11.2624
rfemur -4.48373 -1.67228 22.5506
rtibia 41.4304
rfoot -26.9414 7.48221
rtoes -4.93577
lfemur -34.1003 13.4565 -7.03404
ltibia 43.81
lfoot 4.98379 17.4475
ltoes -17.1787
35
root -17.7294 18.3471 22.4113 173.431 47.6985 -537.625
lowerback 1.82401 -1.20483 1.99866
upperback 14.5283 -0.55607 2.03537
thorax 14.914 0.394957 1.24983
lowerneck 2.36526 3.18565 0.560291
upperneck -4.71574 4.0928 -5.72128
head -1.75001 2.19484 -1.99776
rclavicle -5.38706e-014 1.74931e-014
rhumerus -14.5981 9.99559 -92.7814
rradius 47.1584
rwrist -1.42335
rhand -19.7726 20.2119
rfingers 7.12502
rthumb 6.55935 -9.66647
lclavicle -5.38706e-014 1.74931e-014
lhumerus -22.8656 6.60128 84.0169
lradius 22.1846
lwrist -30.8591
lhand -32.3157 -18.6928
lfingers 7.12502
lthumb -5.55352 11.2145
rfemur -4.56451 -1.71365 22.7366
rtibia 41.9674
rfoot -27.3708 7.5118
rtoes -5.22966
lfemur -33.6843 13.2872 -6.57637
ltibia 42.5244
lfoot 6.15068 17.4862
ltoes -19.041
36
root -17.6803 18.3062 22.3824 173.581 47.6805 -537.438
lowerback 1.82445 -1.19758 1.72791
upperback 14.6337 -0.508896 1.99823
thorax 15.0498 0.39345 1.3696
lowerneck 2.64045 3.21296 0.321069
upperneck -5.1556 4.11033 -5.45026
head -1.95004 2.21286 -1.88637
rclavicle -3.33958e-014 9.14409e-015
rhumerus -14.6152 9.93214 -92.8263
rradius 47.5063
rwrist -1.34617
rhand -19.6208 20.21
rfingers 7.12502
rthumb 6.70591 -9.66381
lclavicle -3.33958e-014 9.14409e-015
lhumerus -22.7608 6.77764 83.9044
lradius 22.413
lwrist -30.5528
lhand -32.5402 -18.7965
lfingers 7.12502
lthumb -5.77031 11.1049
rfemur -4.64566 -1.76074 22.9135
rtibia 42.5059
rfoot -27.8053 7.53648
rtoes -5.56131
lfemur -33.2826 13.1652 -6.13552
ltibia 41.3279
lfoot 7.36257 17.4217
ltoes -21.2158
37
root -17.6314 18.267 22.3522 173.747 47.6431 -537.245
lowerback 1.83755 -1.18672 1.48948
upperback 14.7192 -0.459274 1.94909
thorax 15.1519 0.396672 1.45715
lowerneck 2.92638 3.22705 0.0966412
upperneck -5.58097 4.11268 -5.15646
head -2.1496 2.22151 -1.77041
rclavicle 7.87187e-014 -6.75868e-014
rhumerus -14.6853 9.87935 -92.8801
rradius 47.8671
rwrist -1.35337
rhand -19.5197 20.1908
rfingers 7.12502
rthumb 6.80347 -9.67991
lclavicle 7.87187e-014 -6.75868e-014
lhumerus -22.6733 6.8693 83.7794
lradius 22.6548
lwrist -30.1674
lhand -32.7458 -18.9566
lfingers 7.12502
lthumb -5.96876 10.9393
rfemur -4.73625 -1.8174 23.0902
rtibia 43.0347
rfoot -28.2262 7.58174
rtoes -5.88783
lfemur -32.9091 13.0224 -5.70015
ltibia 40.2245
lfoot 8.47713 17.3246
ltoes -23.3247
38
root -17.5825 18.2263 22.3206 173.906 47.6227 -537.059
lowerback 1.84132 -1.16357 1.26699
upperback 14.8193 -0.389769 1.88598
thorax 15.2782 0.413348 1.52341
lowerneck 3.10682 3.23624 -0.105345
upperneck -5.95119 4.11477 -4.86355
head -2.313 2.22704 -1.65468
rclavicle -3.81667e-014 -1.55052e-014
rhumerus -14.7354 9.73226 -92.9522
rradius 48.2213
rwrist -1.27027
rhand -19.4122 20.1331
rfingers 7.12502
rthumb 6.90725 -9.73418
lclavicle -3.81667e-014 -1.55052e-014
lhumerus -22.5335 6.8945 83.6527
lradius 22.9096
lwrist -29.7899
lhand -32.9202 -19.049
lfingers 7.12502
lthumb -6.13713 10.8421
rfemur -4.80885 -1.87898 23.2551
rtibia 43.5509
rfoot -28.6525 7.62956
rtoes -6.2722
lfemur -32.5342 12.9125 -5.26213
ltibia 39.2127
lfoot 9.4369 17.2364
ltoes -25.0039
39
root -17.5328 18.1875 22.2884 174.085 47.5958 -536.845
lowerback 1.84003 -1.14292 1.0721
upperback 14.9328 -0.322058 1.82205
thorax 15.4249 0.433643 1.57421
lowerneck 3.23396 3.24828 -0.318823
upperneck -6.29881 4.12441 -4.55502
head -2.46069 2.23494 -1.53025
rclavicle -1.04163e-013 8.34896e-015
rhumerus -14.7804 9.64168 -93.0032
rradius 48.6081
rwrist -1.26894
rhand -19.3608 20.0522
rfingers 7.12502
rthumb 6.95685 -9.81347
lclavicle -1.04163e-013 8.34896e-015
lhumerus -22.3602 6.84903 83.5289
lradius 23.1708
lwrist -29.3861
lhand -33.0948 -19.1017
lfingers 7.12502
lthumb -6.30572 10.7844
rfemur -4.86496 -1.94673 23.4414
rtibia 44.0419
rfoot -29.0922 7.64257
rtoes -6.80803
lfemur -32.1579 12.7334 -4.77775
ltibia 38.298
lfoot 10.083 17.3462
ltoes -25.866
40
root -17.4799 18.1495 22.2555 174.255 47.5661 -536.658
lowerback 1.80572 -1.11319 0.82906
upperback 15.0412 -0.241347 1.76551
thorax 15.5876 0.451921 1.66164
lowerneck 3.40536 3.24857 -0.504813
upperneck -6.65012 4.11859 -4.27573
head -2.61837 2.2355 -1.42086
rclavicle -1.88845e-014 2.26615e-014
rhumerus -14.8576 9.52481 -93.0434
rradius 48.9864
rwrist -1.22996
rhand -19.3331 19.9475
rfingers 7.12502
rthumb 6.98359 -9.91729
lclavicle -1.88845e-014 2.26615e-014
lhumerus -22.1979 6.71203 83.4427
lradius 23.4809
lwrist -28.8495
lhand -33.2811 -19.1266
lfingers 7.12502
lthumb -6.48563 10.7541
rfemur -4.91626 -1.99826 23.6153
rtibia 44.5169
rfoot -29.4942 7.68326
rtoes -7.05963
lfemur -31.8092 12.6445 -4.33207
ltibia 37.4731
lfoot 10.5907 17.4599
ltoes -26.264
41
root -17.4267 18.1113 22.2217 174.441 47.5324 -536.447
lowerback 1.76029 -1.08847 0.611233
upperback 15.1663 -0.164715 1.70465
thorax 15.7791 0.472646 1.73112
lowerneck 3.5895 3.25841 -0.677922
upperneck -7.03509 4.12804 -3.97804
head -2.7909 2.24305 -1.30917
rclavicle -2.29596e-014 6.75868e-015
rhumerus -14.8908 9.36651 -93.1019
rradius 49.3765
rwrist -1.19265
rhand -19.289 19.8029
rfingers 7.12502
rthumb 7.02616 -10.0605
lclavicle -2.29596e-014 6.75868e-015
lhumerus -21.9982 6.65666 83.3117
lradius 23.7957
lwrist -28.5156
lhand -33.4756 -19.1914
lfingers 7.12502
lthumb -6.67337 10.6835
rfemur -4.94707 -2.06821 23.8045
rtibia 44.9745
rfoot -29.9236 7.74395
rtoes -7.34473
lfemur -31.4912 12.5645 -3.88273
ltibia 36.745
lfoot 11.0751 17.5681
ltoes -26.4618
